<svg xmlns:xlink="http://www.w3.org/1999/xlink" xmlns="http://www.w3.org/2000/svg" width="227" height="77" viewBox="0 0 227 77" fill="none">
<g id="Group 34">
<path id="Vector" fill-rule="evenodd" clip-rule="evenodd" d="M79.5271 0H69.7039C67.6723 0 65.7902 1.7089 65.5631 3.84204L61.243 45.0051C61.5358 31.7641 53.798 19.3237 38.1071 19.3237C30.7397 19.3237 25.6549 21.9946 22.1414 25.9442L24.4598 3.84204C24.6809 1.7089 23.1572 0 21.0181 0H11.3025C9.16931 0 7.28115 1.7089 7.0541 3.84204L0.0213068 70.8955C-0.199775 73.0287 1.32389 74.7376 3.46301 74.7376H14.1407C15.742 74.7376 17.1581 73.4589 17.3254 71.8576L17.5824 69.4018C20.2652 73.3514 24.7884 76.0223 32.1558 76.0223C47.8467 76.0223 58.2017 63.5819 60.6754 50.4305L58.5303 70.9015C58.3092 73.0347 59.8329 74.7436 61.8645 74.7436H71.6877C73.7192 74.7436 75.6014 73.0347 75.8285 70.9015L82.8613 3.84802C83.0823 1.71488 81.5587 0.00597646 79.5271 0.00597646V0ZM43.5625 47.7298C42.8694 54.3503 37.9757 59.2619 30.7158 59.2619C24.2029 59.2619 19.6438 54.8821 20.3967 47.7298C21.1555 40.4699 26.6348 36.0901 33.1477 36.0901C40.4076 36.0901 44.2735 41.0017 43.5625 47.7298ZM162.265 19.3297C146.867 19.3297 133.25 31.5848 131.451 47.4728L133.865 24.4505C134.087 22.3173 132.563 20.6084 130.424 20.6084H120.708C118.677 20.6084 116.794 22.3173 116.567 24.4505L113.914 49.7554C113.275 55.8441 109.301 59.1483 104.282 59.1483C99.2631 59.1483 95.9589 56.0532 96.6221 49.7554L99.2751 24.4505C99.4962 22.3173 97.9725 20.6084 95.8334 20.6084H86.1177C83.9846 20.6084 82.0964 22.3173 81.8694 24.4505L78.7205 54.4519C77.5673 65.4522 82.8672 76.0223 96.3174 76.0223C103.362 76.0223 108.339 73.3513 111.811 69.832L111.596 71.8635C111.429 73.4649 112.576 74.7436 114.07 74.7436H124.747C126.88 74.7436 128.769 73.0347 128.996 70.9015L131.398 48.0046C129.784 64.6156 140.617 76.0282 158.884 76.0282C167.96 76.0282 175.793 72.6104 181.04 67.3821C182.252 65.9959 182.145 63.9643 180.753 63.0023L173.642 58.515C172.644 57.8756 171.348 57.9832 170.296 58.8376C168.085 60.5465 164.608 62.1479 160.341 62.1479C153.721 62.1479 148.791 59.2678 147.638 52.964H183.191C185.222 52.964 187.104 51.2551 187.331 49.122C189.769 28.9438 177.43 19.3297 162.265 19.3297ZM148.839 42.5015C151.068 36.5203 155.902 33.2101 161.453 33.2101C167.434 33.2101 171.509 36.0901 172.226 42.5015H148.845H148.839Z" fill="white"/>
<path id="Vector_2" fill-rule="evenodd" clip-rule="evenodd" d="M224.85 52.4026C224.533 52.2234 224.187 52.074 223.822 51.9664C223.697 51.9306 223.571 51.9007 223.446 51.8708C221.163 51.3988 218.928 52.8567 218.361 55.1153C218.313 55.3006 218.265 55.4918 218.205 55.677C218.068 56.149 217.907 56.6091 217.733 57.0573C214.752 64.6458 206.422 68.8463 198.439 66.516C198.099 66.4144 197.764 66.3069 197.436 66.1874C196.802 65.9603 196.193 65.6914 195.607 65.3927C193.635 64.3829 191.204 64.9684 189.973 66.8088C189.71 67.2031 189.501 67.6453 189.357 68.1233C189.345 68.1651 189.333 68.207 189.321 68.2548C188.807 70.2206 189.769 72.282 191.58 73.2082C192.321 73.5906 193.092 73.9372 193.88 74.2419C194.562 74.5048 195.255 74.7438 195.972 74.953C208.585 78.6277 221.767 71.804 226.152 59.6087C226.326 59.1247 226.487 58.6287 226.63 58.1328C226.714 57.846 226.792 57.5592 226.863 57.2724C227.341 55.3723 226.541 53.3586 224.838 52.3966L224.85 52.4026Z" fill="#00D8FF"/>
<path id="Vector_3" fill-rule="evenodd" clip-rule="evenodd" d="M209.749 43.0515C207.819 42.1432 205.931 42.3404 204.186 43.5594C202.902 44.4556 202.25 45.7642 201.916 47.258C201.814 47.7121 201.772 48.1722 201.736 48.6323C201.701 48.6323 201.689 48.6323 201.689 48.6323C201.641 48.5905 201.593 48.5546 201.551 48.5128C200.033 47.1923 198.307 46.5768 196.293 47.0429C192.242 47.981 190.581 52.7193 193.162 55.9579C194.088 57.1171 195.289 57.9297 196.598 58.587C197.918 59.2502 199.287 59.776 200.691 60.2301C202.286 60.744 203.905 61.1802 205.549 61.5088C206.54 61.706 207.413 61.4252 208.166 60.75C208.578 60.3855 208.817 59.8955 209.074 59.4294C210.424 57.0035 211.637 54.5179 212.426 51.8469C212.79 50.6161 213.029 49.3613 212.964 48.0706C212.85 45.7762 211.84 44.0374 209.749 43.0515Z" fill="#00D8FF"/>
</g>
</svg>